<svg xmlns="http://www.w3.org/2000/svg" width="1000" height="390" viewBox="0 0 1000 390" role="img" aria-labelledby="title desc">
  <title id="title">Herd1s — Build things. Share the process.</title>
  <desc id="desc">Personal open-source portfolio. Embedded systems, robotics and connected devices. An H-shaped circuit connects hardware and software.</desc>
  <rect x="0.5" y="0.5" width="999" height="389" rx="18" fill="#f4f7f5" stroke="#cfddd5"/>
  <g font-family="Segoe UI, Arial, sans-serif">
    <circle cx="45" cy="41" r="5" fill="#19776b"/>
    <text x="60" y="47" font-size="17" letter-spacing="2.5" fill="#5b736b">A PERSONAL OPEN-SOURCE LAB</text>
    <text x="40" y="153" font-size="88" font-weight="700" letter-spacing="-4" fill="#172b2a">Herd1s<tspan fill="#19776b">.</tspan></text>
    <text x="44" y="216" font-size="34" font-weight="500" letter-spacing="-0.7" fill="#172b2a">Build things.</text>
    <text x="44" y="258" font-size="34" font-weight="500" letter-spacing="-0.7" fill="#5b736b">Share the process.</text>
    <path d="M 44 301 H 956" stroke="#cfddd5"/>
    <text x="44" y="342" font-size="18" font-weight="500" fill="#5b736b">EMBEDDED SYSTEMS</text>
    <circle cx="274" cy="336" r="2.5" fill="#19776b"/>
    <text x="293" y="342" font-size="18" font-weight="500" fill="#5b736b">ROBOTICS</text>
    <circle cx="408" cy="336" r="2.5" fill="#19776b"/>
    <text x="427" y="342" font-size="18" font-weight="500" fill="#5b736b">CONNECTED DEVICES</text>
    <text x="955" y="342" text-anchor="end" font-size="17" font-family="Consolas, monospace" fill="#19776b">CODE ↔ WORLD</text>
  </g>
  <g aria-hidden="true">
    <circle cx="640" cy="38" r="1" fill="#cfddd5"/><circle cx="640" cy="60" r="1" fill="#cfddd5"/><circle cx="640" cy="82" r="1" fill="#cfddd5"/><circle cx="640" cy="104" r="1" fill="#cfddd5"/><circle cx="640" cy="126" r="1" fill="#cfddd5"/><circle cx="640" cy="148" r="1" fill="#cfddd5"/><circle cx="640" cy="170" r="1" fill="#cfddd5"/><circle cx="640" cy="192" r="1" fill="#cfddd5"/><circle cx="640" cy="214" r="1" fill="#cfddd5"/><circle cx="640" cy="236" r="1" fill="#cfddd5"/><circle cx="640" cy="258" r="1" fill="#cfddd5"/><circle cx="640" cy="280" r="1" fill="#cfddd5"/><circle cx="662" cy="38" r="1" fill="#cfddd5"/><circle cx="662" cy="60" r="1" fill="#cfddd5"/><circle cx="662" cy="82" r="1" fill="#cfddd5"/><circle cx="662" cy="104" r="1" fill="#cfddd5"/><circle cx="662" cy="126" r="1" fill="#cfddd5"/><circle cx="662" cy="148" r="1" fill="#cfddd5"/><circle cx="662" cy="170" r="1" fill="#cfddd5"/><circle cx="662" cy="192" r="1" fill="#cfddd5"/><circle cx="662" cy="214" r="1" fill="#cfddd5"/><circle cx="662" cy="236" r="1" fill="#cfddd5"/><circle cx="662" cy="258" r="1" fill="#cfddd5"/><circle cx="662" cy="280" r="1" fill="#cfddd5"/><circle cx="684" cy="38" r="1" fill="#cfddd5"/><circle cx="684" cy="60" r="1" fill="#cfddd5"/><circle cx="684" cy="82" r="1" fill="#cfddd5"/><circle cx="684" cy="104" r="1" fill="#cfddd5"/><circle cx="684" cy="126" r="1" fill="#cfddd5"/><circle cx="684" cy="148" r="1" fill="#cfddd5"/><circle cx="684" cy="170" r="1" fill="#cfddd5"/><circle cx="684" cy="192" r="1" fill="#cfddd5"/><circle cx="684" cy="214" r="1" fill="#cfddd5"/><circle cx="684" cy="236" r="1" fill="#cfddd5"/><circle cx="684" cy="258" r="1" fill="#cfddd5"/><circle cx="684" cy="280" r="1" fill="#cfddd5"/><circle cx="706" cy="38" r="1" fill="#cfddd5"/><circle cx="706" cy="60" r="1" fill="#cfddd5"/><circle cx="706" cy="82" r="1" fill="#cfddd5"/><circle cx="706" cy="104" r="1" fill="#cfddd5"/><circle cx="706" cy="126" r="1" fill="#cfddd5"/><circle cx="706" cy="148" r="1" fill="#cfddd5"/><circle cx="706" cy="170" r="1" fill="#cfddd5"/><circle cx="706" cy="192" r="1" fill="#cfddd5"/><circle cx="706" cy="214" r="1" fill="#cfddd5"/><circle cx="706" cy="236" r="1" fill="#cfddd5"/><circle cx="706" cy="258" r="1" fill="#cfddd5"/><circle cx="706" cy="280" r="1" fill="#cfddd5"/><circle cx="728" cy="38" r="1" fill="#cfddd5"/><circle cx="728" cy="60" r="1" fill="#cfddd5"/><circle cx="728" cy="82" r="1" fill="#cfddd5"/><circle cx="728" cy="104" r="1" fill="#cfddd5"/><circle cx="728" cy="126" r="1" fill="#cfddd5"/><circle cx="728" cy="148" r="1" fill="#cfddd5"/><circle cx="728" cy="170" r="1" fill="#cfddd5"/><circle cx="728" cy="192" r="1" fill="#cfddd5"/><circle cx="728" cy="214" r="1" fill="#cfddd5"/><circle cx="728" cy="236" r="1" fill="#cfddd5"/><circle cx="728" cy="258" r="1" fill="#cfddd5"/><circle cx="728" cy="280" r="1" fill="#cfddd5"/><circle cx="750" cy="38" r="1" fill="#cfddd5"/><circle cx="750" cy="60" r="1" fill="#cfddd5"/><circle cx="750" cy="82" r="1" fill="#cfddd5"/><circle cx="750" cy="104" r="1" fill="#cfddd5"/><circle cx="750" cy="126" r="1" fill="#cfddd5"/><circle cx="750" cy="148" r="1" fill="#cfddd5"/><circle cx="750" cy="170" r="1" fill="#cfddd5"/><circle cx="750" cy="192" r="1" fill="#cfddd5"/><circle cx="750" cy="214" r="1" fill="#cfddd5"/><circle cx="750" cy="236" r="1" fill="#cfddd5"/><circle cx="750" cy="258" r="1" fill="#cfddd5"/><circle cx="750" cy="280" r="1" fill="#cfddd5"/><circle cx="772" cy="38" r="1" fill="#cfddd5"/><circle cx="772" cy="60" r="1" fill="#cfddd5"/><circle cx="772" cy="82" r="1" fill="#cfddd5"/><circle cx="772" cy="104" r="1" fill="#cfddd5"/><circle cx="772" cy="126" r="1" fill="#cfddd5"/><circle cx="772" cy="148" r="1" fill="#cfddd5"/><circle cx="772" cy="170" r="1" fill="#cfddd5"/><circle cx="772" cy="192" r="1" fill="#cfddd5"/><circle cx="772" cy="214" r="1" fill="#cfddd5"/><circle cx="772" cy="236" r="1" fill="#cfddd5"/><circle cx="772" cy="258" r="1" fill="#cfddd5"/><circle cx="772" cy="280" r="1" fill="#cfddd5"/><circle cx="794" cy="38" r="1" fill="#cfddd5"/><circle cx="794" cy="60" r="1" fill="#cfddd5"/><circle cx="794" cy="82" r="1" fill="#cfddd5"/><circle cx="794" cy="104" r="1" fill="#cfddd5"/><circle cx="794" cy="126" r="1" fill="#cfddd5"/><circle cx="794" cy="148" r="1" fill="#cfddd5"/><circle cx="794" cy="170" r="1" fill="#cfddd5"/><circle cx="794" cy="192" r="1" fill="#cfddd5"/><circle cx="794" cy="214" r="1" fill="#cfddd5"/><circle cx="794" cy="236" r="1" fill="#cfddd5"/><circle cx="794" cy="258" r="1" fill="#cfddd5"/><circle cx="794" cy="280" r="1" fill="#cfddd5"/><circle cx="816" cy="38" r="1" fill="#cfddd5"/><circle cx="816" cy="60" r="1" fill="#cfddd5"/><circle cx="816" cy="82" r="1" fill="#cfddd5"/><circle cx="816" cy="104" r="1" fill="#cfddd5"/><circle cx="816" cy="126" r="1" fill="#cfddd5"/><circle cx="816" cy="148" r="1" fill="#cfddd5"/><circle cx="816" cy="170" r="1" fill="#cfddd5"/><circle cx="816" cy="192" r="1" fill="#cfddd5"/><circle cx="816" cy="214" r="1" fill="#cfddd5"/><circle cx="816" cy="236" r="1" fill="#cfddd5"/><circle cx="816" cy="258" r="1" fill="#cfddd5"/><circle cx="816" cy="280" r="1" fill="#cfddd5"/><circle cx="838" cy="38" r="1" fill="#cfddd5"/><circle cx="838" cy="60" r="1" fill="#cfddd5"/><circle cx="838" cy="82" r="1" fill="#cfddd5"/><circle cx="838" cy="104" r="1" fill="#cfddd5"/><circle cx="838" cy="126" r="1" fill="#cfddd5"/><circle cx="838" cy="148" r="1" fill="#cfddd5"/><circle cx="838" cy="170" r="1" fill="#cfddd5"/><circle cx="838" cy="192" r="1" fill="#cfddd5"/><circle cx="838" cy="214" r="1" fill="#cfddd5"/><circle cx="838" cy="236" r="1" fill="#cfddd5"/><circle cx="838" cy="258" r="1" fill="#cfddd5"/><circle cx="838" cy="280" r="1" fill="#cfddd5"/><circle cx="860" cy="38" r="1" fill="#cfddd5"/><circle cx="860" cy="60" r="1" fill="#cfddd5"/><circle cx="860" cy="82" r="1" fill="#cfddd5"/><circle cx="860" cy="104" r="1" fill="#cfddd5"/><circle cx="860" cy="126" r="1" fill="#cfddd5"/><circle cx="860" cy="148" r="1" fill="#cfddd5"/><circle cx="860" cy="170" r="1" fill="#cfddd5"/><circle cx="860" cy="192" r="1" fill="#cfddd5"/><circle cx="860" cy="214" r="1" fill="#cfddd5"/><circle cx="860" cy="236" r="1" fill="#cfddd5"/><circle cx="860" cy="258" r="1" fill="#cfddd5"/><circle cx="860" cy="280" r="1" fill="#cfddd5"/><circle cx="882" cy="38" r="1" fill="#cfddd5"/><circle cx="882" cy="60" r="1" fill="#cfddd5"/><circle cx="882" cy="82" r="1" fill="#cfddd5"/><circle cx="882" cy="104" r="1" fill="#cfddd5"/><circle cx="882" cy="126" r="1" fill="#cfddd5"/><circle cx="882" cy="148" r="1" fill="#cfddd5"/><circle cx="882" cy="170" r="1" fill="#cfddd5"/><circle cx="882" cy="192" r="1" fill="#cfddd5"/><circle cx="882" cy="214" r="1" fill="#cfddd5"/><circle cx="882" cy="236" r="1" fill="#cfddd5"/><circle cx="882" cy="258" r="1" fill="#cfddd5"/><circle cx="882" cy="280" r="1" fill="#cfddd5"/><circle cx="904" cy="38" r="1" fill="#cfddd5"/><circle cx="904" cy="60" r="1" fill="#cfddd5"/><circle cx="904" cy="82" r="1" fill="#cfddd5"/><circle cx="904" cy="104" r="1" fill="#cfddd5"/><circle cx="904" cy="126" r="1" fill="#cfddd5"/><circle cx="904" cy="148" r="1" fill="#cfddd5"/><circle cx="904" cy="170" r="1" fill="#cfddd5"/><circle cx="904" cy="192" r="1" fill="#cfddd5"/><circle cx="904" cy="214" r="1" fill="#cfddd5"/><circle cx="904" cy="236" r="1" fill="#cfddd5"/><circle cx="904" cy="258" r="1" fill="#cfddd5"/><circle cx="904" cy="280" r="1" fill="#cfddd5"/><circle cx="926" cy="38" r="1" fill="#cfddd5"/><circle cx="926" cy="60" r="1" fill="#cfddd5"/><circle cx="926" cy="82" r="1" fill="#cfddd5"/><circle cx="926" cy="104" r="1" fill="#cfddd5"/><circle cx="926" cy="126" r="1" fill="#cfddd5"/><circle cx="926" cy="148" r="1" fill="#cfddd5"/><circle cx="926" cy="170" r="1" fill="#cfddd5"/><circle cx="926" cy="192" r="1" fill="#cfddd5"/><circle cx="926" cy="214" r="1" fill="#cfddd5"/><circle cx="926" cy="236" r="1" fill="#cfddd5"/><circle cx="926" cy="258" r="1" fill="#cfddd5"/><circle cx="926" cy="280" r="1" fill="#cfddd5"/><circle cx="948" cy="38" r="1" fill="#cfddd5"/><circle cx="948" cy="60" r="1" fill="#cfddd5"/><circle cx="948" cy="82" r="1" fill="#cfddd5"/><circle cx="948" cy="104" r="1" fill="#cfddd5"/><circle cx="948" cy="126" r="1" fill="#cfddd5"/><circle cx="948" cy="148" r="1" fill="#cfddd5"/><circle cx="948" cy="170" r="1" fill="#cfddd5"/><circle cx="948" cy="192" r="1" fill="#cfddd5"/><circle cx="948" cy="214" r="1" fill="#cfddd5"/><circle cx="948" cy="236" r="1" fill="#cfddd5"/><circle cx="948" cy="258" r="1" fill="#cfddd5"/><circle cx="948" cy="280" r="1" fill="#cfddd5"/><circle cx="970" cy="38" r="1" fill="#cfddd5"/><circle cx="970" cy="60" r="1" fill="#cfddd5"/><circle cx="970" cy="82" r="1" fill="#cfddd5"/><circle cx="970" cy="104" r="1" fill="#cfddd5"/><circle cx="970" cy="126" r="1" fill="#cfddd5"/><circle cx="970" cy="148" r="1" fill="#cfddd5"/><circle cx="970" cy="170" r="1" fill="#cfddd5"/><circle cx="970" cy="192" r="1" fill="#cfddd5"/><circle cx="970" cy="214" r="1" fill="#cfddd5"/><circle cx="970" cy="236" r="1" fill="#cfddd5"/><circle cx="970" cy="258" r="1" fill="#cfddd5"/><circle cx="970" cy="280" r="1" fill="#cfddd5"/>
    <circle cx="790" cy="198" r="115" stroke="#cfddd5" fill="none"/>
    <circle cx="790" cy="198" r="88" stroke="#cfddd5" stroke-dasharray="3 9" fill="none"/>
    <path d="M 640 97 H 696 L 725 126 M 863 252 L 891 280 H 944 M 670 240 H 704 M 876 154 H 925 V 96" fill="none" stroke="#19776b" stroke-width="2"/>
    <g fill="#f4f7f5" stroke="#19776b" stroke-width="2">
      <circle cx="640" cy="97" r="5"/>
      <circle cx="944" cy="280" r="5"/>
      <circle cx="670" cy="240" r="5"/>
      <circle cx="925" cy="96" r="5"/>
    </g>
    <g stroke="#5b736b" stroke-width="3" stroke-linecap="round"><path d="M 742 132 v -18 M 742 264 v 18"/><path d="M 766 132 v -18 M 766 264 v 18"/><path d="M 790 132 v -18 M 790 264 v 18"/><path d="M 814 132 v -18 M 814 264 v 18"/><path d="M 838 132 v -18 M 838 264 v 18"/><path d="M 722 152 h -18 M 858 152 h 18"/><path d="M 722 176 h -18 M 858 176 h 18"/><path d="M 722 200 h -18 M 858 200 h 18"/><path d="M 722 224 h -18 M 858 224 h 18"/><path d="M 722 248 h -18 M 858 248 h 18"/></g>
    <rect x="722" y="132" width="136" height="132" rx="16" fill="#e8eee8" stroke="#19776b" stroke-width="2"/>
    <rect x="734" y="144" width="112" height="108" rx="9" fill="none" stroke="#cfddd5"/>
    <path d="M 765 163 V 233 M 815 163 V 233 M 765 198 H 815" fill="none" stroke="#19776b" stroke-width="12" stroke-linecap="square"/>
    <circle cx="836" cy="155" r="4" fill="#a76237"/>
    <circle cx="790" cy="83" r="5" fill="#a76237"/>
  </g>
</svg>
